<svg width="24" height="23" fill="none" xmlns="http://www.w3.org/2000/svg"><path d="M23.064 9.308a.516.516 0 0 0-.673-.063l-1.452 1.048a.487.487 0 0 0-.037.028l-.039.026-1.656 1.195a.208.208 0 0 0-.088.181c.006.087.003.174-.009.26-.119.785-.878 1.33-1.698 1.217-.82-.113-1.389-.84-1.271-1.625.117-.785.875-1.332 1.695-1.22.09.013.18.034.265.064a.221.221 0 0 0 .2-.03l.7-.502a.466.466 0 0 0 .1-.67l-.86-1.097a.507.507 0 0 0-.392-.192 1.457 1.457 0 0 1-.156-.011c-.82-.114-1.388-.842-1.27-1.627.118-.785.877-1.33 1.697-1.218.82.112 1.39.839 1.273 1.624a1.48 1.48 0 0 1-.032.147.463.463 0 0 0 .082.413l.857 1.098c.166.212.48.255.7.096l1.257-.906a.48.48 0 0 0 .191-.3c.034-.177.051-.357.052-.537 0-.89-.369-1.743-1.025-2.372a3.58 3.58 0 0 0-2.481-.984.008.008 0 0 1-.003-.005C18.853 1.463 17.22.002 15.25 0c-.84 0-1.653.273-2.31.773a.472.472 0 0 0-.19.377v8.43c0 .398-.336.72-.75.72s-.75-.322-.75-.72V1.15a.472.472 0 0 0-.19-.377A3.818 3.818 0 0 0 8.75 0C6.78.002 5.147 1.463 5.009 3.346a.008.008 0 0 1-.003.005.008.008 0 0 1-.006.002c-1.933 0-3.5 1.502-3.5 3.354.001.18.019.36.053.537.022.12.09.226.191.299L3 8.45c.22.159.534.116.7-.096l.86-1.094a.463.463 0 0 0 .082-.415A1.364 1.364 0 0 1 4.61 6.7c-.116-.785.454-1.512 1.273-1.625.82-.112 1.58.434 1.697 1.219.118.785-.45 1.513-1.27 1.626a1.46 1.46 0 0 1-.156.012.507.507 0 0 0-.392.192L4.9 9.22a.466.466 0 0 0 .1.67l.7.502a.225.225 0 0 0 .2.03 1.33 1.33 0 0 1 .265-.064c.82-.112 1.578.434 1.695 1.22.117.785-.452 1.512-1.271 1.625-.82.113-1.58-.432-1.698-1.217a1.261 1.261 0 0 1-.01-.26.205.205 0 0 0-.088-.181l-1.685-1.218-.01-.006a.419.419 0 0 0-.035-.027L1.609 9.245a.516.516 0 0 0-.673.063A3.266 3.266 0 0 0 0 11.497c.048 1.132.663 2.172 1.651 2.794a.467.467 0 0 1 .171.596 3.202 3.202 0 0 0-.06 2.667 3.413 3.413 0 0 0 2.002 1.854.516.516 0 0 0 .531-.11l1.675-1.603a.203.203 0 0 0 .059-.192A1.222 1.222 0 0 1 6 17.245c0-.793.672-1.437 1.5-1.437s1.5.644 1.5 1.437c0 .794-.672 1.437-1.5 1.437a1.37 1.37 0 0 1-.271-.028.225.225 0 0 0-.2.057l-1.618 1.551a.465.465 0 0 0-.111.528c.445 1.036 1.372 1.812 2.503 2.095a3.848 3.848 0 0 0 3.252-.658c.12-.09.191-.23.191-.376v-2.21c0-.397.336-.72.75-.72s.75.323.75.72v2.203c0 .147.07.286.191.377a3.85 3.85 0 0 0 3.255.665c1.133-.282 2.063-1.058 2.508-2.096a.464.464 0 0 0-.107-.524l-1.623-1.555a.228.228 0 0 0-.2-.057 1.37 1.37 0 0 1-.271.028c-.828 0-1.5-.644-1.499-1.437 0-.794.672-1.437 1.5-1.437.829 0 1.5.644 1.5 1.437 0 .087-.01.174-.029.259a.203.203 0 0 0 .059.192l1.67 1.603c.14.134.347.177.531.11a3.413 3.413 0 0 0 2.002-1.854 3.202 3.202 0 0 0-.06-2.667.467.467 0 0 1 .171-.596c.99-.621 1.607-1.662 1.656-2.795a3.266 3.266 0 0 0-.936-2.19z" fill="#601CBA"/></svg>