<svg width="24" height="19" fill="none" xmlns="http://www.w3.org/2000/svg"><path d="M4.938 5.941a.25.25 0 0 0 0-.383 3.992 3.992 0 0 1-1.077-1.412A.251.251 0 0 0 3.633 4H2a2 2 0 1 0 0 4h1.453a.25.25 0 0 0 .239-.177 4.009 4.009 0 0 1 1.246-1.882zm.003 6.5a.25.25 0 0 0 0-.382 3.986 3.986 0 0 1-1.432-2.824A.25.25 0 0 0 3.258 9H2a2 2 0 1 0 0 4h2.285a.25.25 0 0 0 .191-.089 4.39 4.39 0 0 1 .465-.47zM3.5 15.5c0-.399.062-.796.181-1.176a.248.248 0 0 0-.237-.322H2a2 2 0 1 0 0 4h1.915a.251.251 0 0 0 .211-.385A3.91 3.91 0 0 1 3.5 15.5zm15.062-9.942a.25.25 0 0 0 0 .383 4.009 4.009 0 0 1 1.246 1.882.25.25 0 0 0 .239.177H22a2 2 0 1 0 0-4h-2.133a.251.251 0 0 0-.228.146 3.991 3.991 0 0 1-1.077 1.412zm-.001 6.501a.251.251 0 0 0 0 .382 4.3 4.3 0 0 1 .465.47.25.25 0 0 0 .191.089H22a2 2 0 1 0 0-4h-1.758a.25.25 0 0 0-.249.235 3.986 3.986 0 0 1-1.432 2.824zM20 15.5a3.91 3.91 0 0 1-.626 2.115.251.251 0 0 0 .211.385H22a2 2 0 1 0 0-4h-1.942a.248.248 0 0 0-.237.322c.119.381.18.779.179 1.178z" fill="#81E8A1"/><path fill-rule="evenodd" clip-rule="evenodd" d="M7.5 5H16a2.5 2.5 0 0 0 0-5H7.5a2.5 2.5 0 0 0 0 5zM11 1.5a1 1 0 1 1 0 2 1 1 0 0 1 0-2zm-2.25 1a1 1 0 1 0-2 0 1 1 0 0 0 2 0zm-1.25 9H16a2.5 2.5 0 0 0 0-5H7.5a2.5 2.5 0 0 0 0 5zM11 8a1 1 0 1 1 0 2 1 1 0 0 1 0-2zM8.75 9a1 1 0 1 0-2 0 1 1 0 0 0 2 0zM16 18a2.5 2.5 0 0 0 0-5H7.5a2.5 2.5 0 0 0 0 5H16zm-5-3.5a1 1 0 1 1 0 2 1 1 0 0 1 0-2zm-2.25 1a1 1 0 1 0-2 0 1 1 0 0 0 2 0z" fill="#81E8A1"/></svg>