<svg width="267" height="180" fill="none" xmlns="http://www.w3.org/2000/svg"><path fill-rule="evenodd" clip-rule="evenodd" d="M68.837 180c-19.476 0-36.121-14.027-39.422-33.221l-2.038-11.853-14.037-10.31a32.694 32.694 0 0 1 .724-53.215l16.579-11.496c3.726-16.293 18.751-27.454 35.426-26.316l11.157.76 1.112-4.32C82.887 12.355 98.824 0 117.075 0h37.107c9.34 0 18.386 3.268 25.569 9.239l18.143 15.08h28.088c26.014 0 45.107 24.44 38.811 49.68l-4.205 16.857 1.834 10.335c3.444 19.416-7.774 38.445-26.43 44.832l-4.12 1.41-7.916 13.172A39.998 39.998 0 0 1 189.672 180H68.837z" fill="#7A2FDD"/></svg>