<svg width="266" height="173" fill="none" xmlns="http://www.w3.org/2000/svg"><path fill-rule="evenodd" clip-rule="evenodd" d="M45.516 142.154A50 50 0 0 0 91.702 173h88.461a40 40 0 0 0 32.172-16.231l20.106-27.213 13.209-7.302a38.809 38.809 0 0 0 20.015-32.797l.115-3.794a50.25 50.25 0 0 0-49.751-51.757L194 33.698l-2.184-6.455C186.389 11.207 171.47.318 154.541.183c-21.67-.173-50.848-.254-68.896.31-31.552.988-44.073 36.625-44.073 36.625L24.437 46.9a48.466 48.466 0 0 0 5.06 86.691l15.138 6.438.881 2.125z" fill="#601CBA"/></svg>