<svg width="22" height="19" fill="none" xmlns="http://www.w3.org/2000/svg"><path fill-rule="evenodd" clip-rule="evenodd" d="M1.5.25h19a1.5 1.5 0 0 1 1.5 1.5v2.5a1.5 1.5 0 0 1-1.5 1.5h-19A1.5 1.5 0 0 1 0 4.25v-2.5A1.5 1.5 0 0 1 1.5.25zm2 1.5a1.25 1.25 0 1 0 0 2.5 1.25 1.25 0 0 0 0-2.5zm4 2.5a1.25 1.25 0 1 1 0-2.5 1.25 1.25 0 0 1 0 2.5zm13 3h-19A1.5 1.5 0 0 0 0 8.75v2.5a1.5 1.5 0 0 0 1.5 1.5h8.25A.25.25 0 0 1 10 13v3.5a.25.25 0 0 1-.25.25H5.5a1 1 0 1 0 0 2h11a1 1 0 1 0 0-2h-4.25a.25.25 0 0 1-.25-.25V13a.25.25 0 0 1 .25-.25h8.25a1.5 1.5 0 0 0 1.5-1.5v-2.5a1.5 1.5 0 0 0-1.5-1.5zM2.25 10a1.25 1.25 0 1 1 2.5 0 1.25 1.25 0 0 1-2.5 0zm4 0a1.25 1.25 0 1 0 2.5 0 1.25 1.25 0 0 0-2.5 0z" fill="#81E8A1"/><path d="M21 18.75a1 1 0 1 0 0-2h-1a1 1 0 1 0 0 2h1zm-20 0h1a1 1 0 1 0 0-2H1a1 1 0 1 0 0 2z" fill="#81E8A1"/></svg>