<svg width="31" height="29" fill="none" xmlns="http://www.w3.org/2000/svg"><g filter="url(#filter0_d)"><path d="M22.25 13.471c1.43 0 2.66-.61 3.13-1.327.532-.808.764-1.762.772-2.734.11-2.975-2.07-5.506-4.93-5.723-1.463-2.634-4.334-4.064-7.228-3.6C11.1.55 8.778 2.811 8.15 5.78a.235.235 0 0 1-.209.192c-2.217.162-3.937 2.076-3.939 4.383a4.58 4.58 0 0 0 .28 1.688c.096.259.822 1.427 2.533 1.427H22.25z" fill="#81E8A1"/></g><g filter="url(#filter1_d)"><path fill-rule="evenodd" clip-rule="evenodd" d="M5.385 15h19.384c.765 0 1.385.644 1.385 1.438v2.875c0 .793-.62 1.437-1.385 1.437H5.385C4.62 20.75 4 20.106 4 19.312v-2.875C4 15.645 4.62 15 5.385 15zm15.692 2.875c0 .794.62 1.438 1.384 1.438.765 0 1.385-.644 1.385-1.438 0-.794-.62-1.438-1.384-1.438-.765 0-1.385.644-1.385 1.438z" fill="#81E8A1"/></g><defs><filter id="filter0_d" x="0" y="0" width="30.156" height="21.471" filterUnits="userSpaceOnUse" color-interpolation-filters="sRGB"><feFlood flood-opacity="0" result="BackgroundImageFix"/><feColorMatrix in="SourceAlpha" values="0 0 0 0 0 0 0 0 0 0 0 0 0 0 0 0 0 0 127 0"/><feOffset dy="4"/><feGaussianBlur stdDeviation="2"/><feColorMatrix values="0 0 0 0 0 0 0 0 0 0 0 0 0 0 0 0 0 0 0.25 0"/><feBlend in2="BackgroundImageFix" result="effect1_dropShadow"/><feBlend in="SourceGraphic" in2="effect1_dropShadow" result="shape"/></filter><filter id="filter1_d" x="0" y="15" width="30.154" height="13.75" filterUnits="userSpaceOnUse" color-interpolation-filters="sRGB"><feFlood flood-opacity="0" result="BackgroundImageFix"/><feColorMatrix in="SourceAlpha" values="0 0 0 0 0 0 0 0 0 0 0 0 0 0 0 0 0 0 127 0"/><feOffset dy="4"/><feGaussianBlur stdDeviation="2"/><feColorMatrix values="0 0 0 0 0 0 0 0 0 0 0 0 0 0 0 0 0 0 0.25 0"/><feBlend in2="BackgroundImageFix" result="effect1_dropShadow"/><feBlend in="SourceGraphic" in2="effect1_dropShadow" result="shape"/></filter></defs></svg>