<svg width="248" height="140" fill="none" xmlns="http://www.w3.org/2000/svg"><path d="M22.13 86.247v22.705l1.75.851 2.003-.903V86.247H22.13z" fill="#D2CDC4"/><path d="M63.469 87.487L36.063 106l8.374 4.605 22.514-21.609-3.482-1.51z" fill="url(#paint0_linear)"/><path d="M63.13 66.247v22.705l1.75.85 2.003-.902V66.247H63.13zm-60 8v22.705l1.75.85 2.003-.902V74.247H3.13z" fill="#D2CDC4"/><path d="M46.046 57L.275 73.674v3.862l23.954 13.02 45.77-20.536v-3.745L46.047 57z" fill="#E8E2D9"/><path d="M46.046 53L.275 73.536l23.954 13.02 45.77-20.536L46.047 53z" fill="#F4F0EA"/><path d="M34.942 53.934a1 1 0 0 0-1.356-.632l-14.64 6.334a1 1 0 0 0-.561 1.204l3.126 10.47L38 64.176l-3.058-10.242z" fill="#A09797"/><path d="M45.21 68.465a1 1 0 0 1-.066 1.796l-13.241 5.872a2 2 0 0 1-1.755-.065L22 71.71l16.006-7.097 7.204 3.853z" fill="#877F7F"/><path d="M41 70.584l-5.709 2.552-3.247-1.584L37.753 69 41 70.584z" fill="#AEA9A9"/><path d="M58.75 98.238l6.413-4.9-4.078-7.782L47 94.264l10.89 16.371 4.974-1.832S59.3 102.131 58 99c-1.3-3.131.75-.762.75-.762z" fill="#A0CBAE"/><path d="M63.706 114L34 126.62 49 133l24.287-12.895s1.297-2.745-1.162-3.451c-2.46-.706-8.419-2.654-8.419-2.654z" fill="url(#paint1_linear)"/><path d="M67.5 120.737c4.142 0 7.5-1.591 7.5-3.553v-1.647H60v1.647c0 1.962 3.358 3.553 7.5 3.553z" fill="#C3B9B9"/><path d="M67.5 118.737c4.142 0 7.5-1.591 7.5-3.553s-3.358-3.552-7.5-3.552c-4.142 0-7.5 1.59-7.5 3.552s3.358 3.553 7.5 3.553z" fill="#D7C9C9"/><rect x="65.526" y="98" width="3.947" height="17.763" rx="1.974" fill="#F4EEEE"/><path d="M59.121 109.653l-2.752 1.228-2.985 1.994.824 1.228h7.332l3.64-2.247-1.382-3.777-4.677 1.574z" fill="#CFDCE8"/><path d="M81.725 95.443v2.995L63.5 107.556 51 102.118V99l30.725-3.557z" fill="#C7A19D"/><path d="M69.226 90l12.5 5.438-18.227 9.118L51 99.118 69.226 90z" fill="#E2B2AD"/><path d="M33.96 108.803l-28.077 9.934L21 122.561l23.857-10.811-10.898-2.947z" fill="url(#paint2_linear)"/><path d="M39.024 107.704l-3.7.202-3.42 1.094.454 1.407 6.666 2.174 5.678-.663-.287-4.012-5.39-.202z" fill="#CFDCE8"/><path d="M46.75 97.238L59.235 99 74 93.264 70 85l-13.923.316L37.857 90v18.704h6.35l2.542-11.466z" fill="#B6DBC1"/><path d="M51 89.334l9.275 3.66 9.88-6.246L63.455 66l-2.384-2.079-9.64 3.097L50 78.99l1 10.344z" fill="#9F9687"/><path d="M51.844 66.835L41.59 76.033h-6.461l-3.225 2.511L43 82l11.864-5.967" fill="#9F9687"/><path d="M49.157 56s1.45 6.571 2.79 8.208c.578.703 1.763 0 1.763 0l1.154 2.67s1.928.546 3.065.375C59.065 67.082 60.691 66 60.691 66l-.802-5-4.935-7.444L49.158 56z" fill="#DCCAB1"/><path d="M51 57.486l3.594 5.444 5.68-1.193.797-7.622-3.657-4.509-8.059.886L48.017 56 51 57.486z" fill="#AD887E"/><path d="M35 76.247l-4.152-2.288L29 76l3 2.447 3-2.2z" fill="#DCCAB1"/><path d="M79.606 73.776a1 1 0 0 1 1.445.965l-1.205 16.991a3 3 0 0 1-1.65 2.471l-11.128 5.568a1 1 0 0 1-1.445-.965l1.205-16.992a3 3 0 0 1 1.65-2.47l11.128-5.568z" fill="#C7A19D"/><path d="M120.155 79l-26.45 13.738 19.471 9.559L133.525 82l-13.37-3z" fill="url(#paint3_linear)"/><path d="M128.192 76.61l5.623 5.194-1.504 1.499-3.681.129-7.417-6.822h6.979z" fill="#939191"/><path d="M123.746 78.705l3.859 5.477-1.504 1.498-3.681.129-4.856-5.098.374-3.322 5.808 1.316z" fill="#939191"/><path d="M122.876 78.283l5.252-.8-.038-33.924-13.598-2.22 2.959 19.268 5.425 17.676z" fill="#8988AA"/><path d="M123.745 79.297l-2.966 1.618-3.373-1.396.054-13.801-3.482-18.578 10.995 1.364v18.255l-1.228 12.538z" fill="#9998B7"/><path d="M127.783 20.058l6.221 13.594 7.653 2.935-3.229 3.068-11.586-2.55.941-17.047z" fill="#E9D4C0"/><path d="M128.584 44.994l-4.367 5.115h-7.35l-3.212-2.43-.887-25.09 10.04-5.763 4.961 2.694 4.107 8.823-3.22 1.86-.072 14.791z" fill="#E0A6A6"/><path d="M149.551 38.998l-.495-1.312-11.891 2.48.622 1.03 11.764-2.197z" fill="#8DCAD6"/><path d="M152.746 33.278l-3.69 4.408-11.891 2.48 3.817-4.691 11.764-2.197z" fill="#BBECF6"/><path d="M149.537 39.023l-.481-1.337 3.629-4.355.609 1.054-3.757 4.638z" fill="#91B3BA"/><path d="M128.584 8.61s.355 6.982-1.586 9.302c-1.941 2.32-4.648 2.06-7.23-1.356-2.581-3.415 0-9.427 0-9.427l8.816 1.48z" fill="#E9D4C0"/><path d="M130.508 9.567l-4.859-.235-3.432 1.281.062 1.784-2.816 1.053-.74 1.334-1.856-3.18.131-6.815 6.861-3.07 6.495 3.433.154 4.415z" fill="#E3BB9C"/><path d="M121.773 52.12l-4.084 5.497" stroke="#7982A0"/><path d="M123.598 18.163a1 1 0 0 1-.48 1.263l-2.59 1.3a1 1 0 0 1-1.38-.53l-3.02-7.72a1 1 0 0 1 .571-1.297l2.653-1.023a1 1 0 0 1 1.289.564l2.957 7.443z" fill="#6F6D6D"/><path d="M111.998 32.172l4.208 9.13 6.139-1.456.842-15.996.49-3.011-1.851-5.306-3.103-.532 1.46 7.976-1.46 11.648-1.09-2.798" fill="#E9D4C0"/><path d="M112.689 22.647l-2.691 11.083 8.175-1.19-1.306-6.923-4.178-2.97z" fill="#E0A6A6"/><path d="M217.131 91.247v22.706l1.748.85 2.004-.903V91.247h-3.752zm24-12v22.706l1.748.85 2.004-.903V79.247h-3.752z" fill="#D2CDC4"/><path d="M180.131 74.247v22.706l1.748.85 2.004-.903V74.248h-3.752z" fill="#D8D8D8" stroke="#979797"/><path d="M181.857 74.284v23.42" stroke="#979797"/><path d="M224.046 70l-46.685 1v3.862l41.804 20.923L248 83.02v-3.745L224.046 70z" fill="#E8E2D9"/><path d="M206.046 58l-28.771 12.536 41.954 21.02L248 79.02 206.046 58z" fill="#F4F0EA"/><path d="M206.746 71.204a1 1 0 0 0-.837-.022l-9.036 3.879a.3.3 0 0 0-.015.544l13.67 6.747a1 1 0 0 0 .837.023l9.037-3.88a.3.3 0 0 0 .014-.544l-13.67-6.747z" fill="#D3D0D0"/><path d="M219.992 63l-1.833 7.643L224 74.075v-8.799L219.992 63z" fill="#827D7D"/><path d="M214.974 42.535a1 1 0 0 0-1.392.796l-2.228 18.284a1 1 0 0 0 .547 1.017l20.114 9.99a1 1 0 0 0 1.437-.771l2.36-18.687a1.999 1.999 0 0 0-1.187-2.084l-19.651-8.545z" fill="#625B5B"/><path d="M194.142 70l-6.284 2.452 3.069 1.028L197 71.224 194.142 70z" fill="#fff"/><path d="M187.561 108.862l2.252.803.044 2.404-5.121 1.275-5.121-.581.4-4.123 7.546.222z" fill="#C0BCBC"/><path d="M183.211 94l5.997 2.458-3.847 13.904-5.23-.781L183.211 94z" fill="#746E6E"/><path d="M167.971 116.669l-29.706 12.62 19.125 10.233 22.61-18.28s-1.151-1.213-3.61-1.919c-2.459-.706-8.419-2.654-8.419-2.654z" fill="url(#paint4_linear)"/><path d="M172.5 123.737c-4.142 0-7.5-1.591-7.5-3.553v-1.647h15v1.647c0 1.962-3.358 3.553-7.5 3.553z" fill="#AAA4A4"/><path d="M172.5 121.737c-4.142 0-7.5-1.591-7.5-3.553s3.358-3.552 7.5-3.552c4.142 0 7.5 1.59 7.5 3.552s-3.358 3.553-7.5 3.553z" fill="#C4BFBF"/><rect width="3.947" height="17.763" rx="1.974" transform="matrix(-1 0 0 1 174.474 101)" fill="#F6F2F2"/><path d="M158.275 98.573v1.865l18.226 9.118 12.406-5.995v-1.415l-30.632-3.573z" fill="#9E92B9"/><path d="M170.774 93l-12.499 5.438 18.226 9.118L189 102.118 170.774 93z" fill="#B3A9C9"/><path d="M196.518 115l-27.406 18.513 8.374 4.606L200 116.51l-3.482-1.51z" fill="url(#paint5_linear)"/><path d="M194.505 112.91l1.753.978 1.752-.342 3.324 1.865-.454 1.407-6.571 1.403-7.024-1.403 1.346-4.178 5.874.27z" fill="#C0BCBC"/><path d="M192.885 99.64l-11.898 1.765L166 93.673v-5.357h17.923l12.352 2.931 4.692 3.96-6.277 19.287-6.294-1.563 4.489-13.291z" fill="#887E7E"/><path d="M186.418 92.688l-8.206 3.078-8.367-6.018 5.892-20.5 2.519-2.413 9.029 3.156-.148 8.06-.719 14.637z" fill="#D9C6A9"/><path d="M187.285 70l10.383 10.376 7.203-1.343 2.287 3.364-9.837 2.889-12.186-6.253" fill="#D9C6A9"/><path d="M190.842 59.866s-1.448 5.705-2.79 7.342c-.577.703-2.506 0-2.506 0l-.756 2.296s-2.076.647-2.933.487c-.858-.16-1.747-.996-1.747-.996s3.241-10.407 4.935-12.439c1.695-2.031 5.797 3.31 5.797 3.31z" fill="#ADA399"/><path d="M191.086 60.842c.379.73-.391 2.518-.56 2.803-.309.521-1.584-.611-1.967-.32-.636.483-1.41 1.098-2.049 1.287-.679.2-1.318-.587-1.927-.69-.864-.148-3.789 2.325-3.156-1.17-.254-.677-1.427-.163-1.427-1.91 0-1.27.537-1.385.58-1.944.034-.437-.918-.394-.918-2.158 0-1.172 1.277-1.172 1.765-1.172-.24-.758-.24-1.748.807-2.329 1.586-.88 1.989-.384 2.956 0-.19-.736 1.127-1.15 1.635-1.118.684.041 2.082 1.118 1.734 2.15.649-1.032 2.012.313 2.31.54.774.588.844 1.64.131 2.189.465 0 1.892 1.252 2 1.898.104.625-1.081 1.638-1.914 1.944z" fill="#7B7B88"/><path d="M205.037 79.247l3.699-1.046L213 79.886 206.573 82l-1.536-2.753z" fill="#ADA399"/><path d="M160.394 76.776a1 1 0 0 0-1.445.965l1.205 16.991a3 3 0 0 0 1.65 2.471l11.128 5.568a1 1 0 0 0 1.445-.965l-1.205-16.992a3 3 0 0 0-1.65-2.47l-11.128-5.568z" fill="#9E92B9"/><defs><linearGradient id="paint0_linear" x1="105.645" y1="57.953" x2="96.845" y2="116.868" gradientUnits="userSpaceOnUse"><stop stop-opacity=".1"/><stop offset="1" stop-opacity=".01"/></linearGradient><linearGradient id="paint1_linear" x1="123.512" y1="89.728" x2="118.831" y2="138.78" gradientUnits="userSpaceOnUse"><stop stop-opacity=".1"/><stop offset="1" stop-opacity=".01"/></linearGradient><linearGradient id="paint2_linear" x1="93.681" y1="91.226" x2="91.168" y2="126.894" gradientUnits="userSpaceOnUse"><stop stop-opacity=".1"/><stop offset="1" stop-opacity=".01"/></linearGradient><linearGradient id="paint3_linear" x1="182.669" y1="47.367" x2="177.959" y2="106.813" gradientUnits="userSpaceOnUse"><stop stop-opacity=".1"/><stop offset="1" stop-opacity=".01"/></linearGradient><linearGradient id="paint4_linear" x1="232.282" y1="87.475" x2="225.853" y2="146.309" gradientUnits="userSpaceOnUse"><stop stop-opacity=".1"/><stop offset="1" stop-opacity=".01"/></linearGradient><linearGradient id="paint5_linear" x1="238.694" y1="85.466" x2="229.894" y2="144.381" gradientUnits="userSpaceOnUse"><stop stop-opacity=".1"/><stop offset="1" stop-opacity=".01"/></linearGradient></defs></svg>